<svg width="240" height="127" viewBox="0 0 240 127" fill="none" xmlns="http://www.w3.org/2000/svg">
<g filter="url(#filter0_d_703_566)">
<g filter="url(#filter1_d_703_566)">
<path d="M86.9268 34.8359L88.8955 25.2031H91.1016L88.1484 38H86.0215L83.5869 28.6572L81.0996 38H78.9639L76.0107 25.2031H78.2168L80.2031 34.8184L82.6465 25.2031H84.5098L86.9268 34.8359ZM97.9043 38C97.8105 37.8184 97.7285 37.5225 97.6582 37.1123C96.9785 37.8213 96.1465 38.1758 95.1621 38.1758C94.207 38.1758 93.4277 37.9033 92.8242 37.3584C92.2207 36.8135 91.9189 36.1396 91.9189 35.3369C91.9189 34.3232 92.2939 33.5469 93.0439 33.0078C93.7998 32.4629 94.8779 32.1904 96.2783 32.1904H97.5879V31.5664C97.5879 31.0742 97.4502 30.6816 97.1748 30.3887C96.8994 30.0898 96.4805 29.9404 95.918 29.9404C95.4316 29.9404 95.0332 30.0635 94.7227 30.3096C94.4121 30.5498 94.2568 30.8574 94.2568 31.2324H92.1211C92.1211 30.7109 92.2939 30.2246 92.6396 29.7734C92.9854 29.3164 93.4541 28.959 94.0459 28.7012C94.6436 28.4434 95.3086 28.3145 96.041 28.3145C97.1543 28.3145 98.042 28.5957 98.7041 29.1582C99.3662 29.7148 99.7061 30.5 99.7236 31.5137V35.8027C99.7236 36.6582 99.8438 37.3408 100.084 37.8506V38H97.9043ZM95.5576 36.4619C95.9795 36.4619 96.375 36.3594 96.7441 36.1543C97.1191 35.9492 97.4004 35.6738 97.5879 35.3281V33.5352H96.4365C95.6455 33.5352 95.0508 33.6729 94.6523 33.9482C94.2539 34.2236 94.0547 34.6133 94.0547 35.1172C94.0547 35.5273 94.1895 35.8555 94.459 36.1016C94.7344 36.3418 95.1006 36.4619 95.5576 36.4619ZM104.637 26.1787V28.4902H106.315V30.0723H104.637V35.3809C104.637 35.7441 104.707 36.0078 104.848 36.1719C104.994 36.3301 105.252 36.4092 105.621 36.4092C105.867 36.4092 106.116 36.3799 106.368 36.3213V37.9736C105.882 38.1084 105.413 38.1758 104.962 38.1758C103.321 38.1758 102.501 37.2705 102.501 35.46V30.0723H100.937V28.4902H102.501V26.1787H104.637ZM111.861 36.4707C112.395 36.4707 112.837 36.3154 113.188 36.0049C113.54 35.6943 113.728 35.3105 113.751 34.8535H115.764C115.74 35.4453 115.556 35.999 115.21 36.5146C114.864 37.0244 114.396 37.4287 113.804 37.7275C113.212 38.0264 112.573 38.1758 111.888 38.1758C110.558 38.1758 109.503 37.7451 108.724 36.8838C107.944 36.0225 107.555 34.833 107.555 33.3154V33.0957C107.555 31.6484 107.941 30.4912 108.715 29.624C109.488 28.751 110.543 28.3145 111.879 28.3145C113.01 28.3145 113.93 28.6455 114.639 29.3076C115.354 29.9639 115.729 30.8281 115.764 31.9004H113.751C113.728 31.3555 113.54 30.9072 113.188 30.5557C112.843 30.2041 112.4 30.0283 111.861 30.0283C111.17 30.0283 110.637 30.2803 110.262 30.7842C109.887 31.2822 109.696 32.041 109.69 33.0605V33.4033C109.69 34.4346 109.875 35.2051 110.244 35.7148C110.619 36.2188 111.158 36.4707 111.861 36.4707ZM119.481 29.5273C120.179 28.7188 121.061 28.3145 122.127 28.3145C124.154 28.3145 125.183 29.4717 125.212 31.7861V38H123.076V31.8652C123.076 31.209 122.933 30.7461 122.646 30.4766C122.364 30.2012 121.948 30.0635 121.397 30.0635C120.542 30.0635 119.903 30.4443 119.481 31.2061V38H117.346V24.5H119.481V29.5273ZM133.843 28.4902L133.904 29.5889C134.607 28.7393 135.53 28.3145 136.673 28.3145C138.653 28.3145 139.661 29.4482 139.696 31.7158V38H137.561V31.8389C137.561 31.2354 137.429 30.79 137.165 30.5029C136.907 30.21 136.482 30.0635 135.891 30.0635C135.029 30.0635 134.388 30.4531 133.966 31.2324V38H131.83V28.4902H133.843ZM141.48 33.1572C141.48 32.2256 141.665 31.3877 142.034 30.6436C142.403 29.8936 142.922 29.3193 143.59 28.9209C144.258 28.5166 145.025 28.3145 145.893 28.3145C147.176 28.3145 148.216 28.7275 149.013 29.5537C149.815 30.3799 150.249 31.4756 150.313 32.8408L150.322 33.3418C150.322 34.2793 150.141 35.1172 149.777 35.8555C149.42 36.5938 148.904 37.165 148.23 37.5693C147.562 37.9736 146.789 38.1758 145.91 38.1758C144.568 38.1758 143.493 37.7305 142.685 36.8398C141.882 35.9434 141.48 34.751 141.48 33.2627V33.1572ZM143.616 33.3418C143.616 34.3203 143.818 35.0879 144.223 35.6445C144.627 36.1953 145.189 36.4707 145.91 36.4707C146.631 36.4707 147.19 36.1895 147.589 35.627C147.993 35.0645 148.195 34.2412 148.195 33.1572C148.195 32.1963 147.987 31.4346 147.571 30.8721C147.161 30.3096 146.602 30.0283 145.893 30.0283C145.195 30.0283 144.642 30.3066 144.231 30.8633C143.821 31.4141 143.616 32.2402 143.616 33.3418ZM160.482 35.0557L161.994 28.4902H164.077L161.484 38H159.727L157.688 31.4697L155.684 38H153.926L151.324 28.4902H153.407L154.945 34.9854L156.896 28.4902H158.505L160.482 35.0557Z" fill="white"/>
</g>
<path d="M48 4.5H192V3.5H48V4.5ZM192 59.5H48V60.5H192V59.5ZM48 59.5C32.8122 59.5 20.5 47.1878 20.5 32H19.5C19.5 47.7401 32.2599 60.5 48 60.5V59.5ZM219.5 32C219.5 47.1878 207.188 59.5 192 59.5V60.5C207.74 60.5 220.5 47.7401 220.5 32H219.5ZM192 4.5C207.188 4.5 219.5 16.8122 219.5 32H220.5C220.5 16.2599 207.74 3.5 192 3.5V4.5ZM48 3.5C32.2599 3.5 19.5 16.2599 19.5 32H20.5C20.5 16.8122 32.8122 4.5 48 4.5V3.5Z" fill="url(#paint0_linear_703_566)"/>
</g>
<defs>
<filter id="filter0_d_703_566" x="0" y="0" width="240" height="96" filterUnits="userSpaceOnUse" color-interpolation-filters="sRGB">
<feFlood flood-opacity="0" result="BackgroundImageFix"/>
<feColorMatrix in="SourceAlpha" type="matrix" values="0 0 0 0 0 0 0 0 0 0 0 0 0 0 0 0 0 0 127 0" result="hardAlpha"/>
<feMorphology radius="4" operator="dilate" in="SourceAlpha" result="effect1_dropShadow_703_566"/>
<feOffset dy="16"/>
<feGaussianBlur stdDeviation="8"/>
<feColorMatrix type="matrix" values="0 0 0 0 0 0 0 0 0 0 0 0 0 0 0 0 0 0 0.12 0"/>
<feBlend mode="normal" in2="BackgroundImageFix" result="effect1_dropShadow_703_566"/>
<feBlend mode="normal" in="SourceGraphic" in2="effect1_dropShadow_703_566" result="shape"/>
</filter>
<filter id="filter1_d_703_566" x="28.0107" y="16.5" width="184.066" height="109.676" filterUnits="userSpaceOnUse" color-interpolation-filters="sRGB">
<feFlood flood-opacity="0" result="BackgroundImageFix"/>
<feColorMatrix in="SourceAlpha" type="matrix" values="0 0 0 0 0 0 0 0 0 0 0 0 0 0 0 0 0 0 127 0" result="hardAlpha"/>
<feMorphology radius="8" operator="dilate" in="SourceAlpha" result="effect1_dropShadow_703_566"/>
<feOffset dy="40"/>
<feGaussianBlur stdDeviation="20"/>
<feColorMatrix type="matrix" values="0 0 0 0 0 0 0 0 0 0 0 0 0 0 0 0 0 0 0.12 0"/>
<feBlend mode="normal" in2="BackgroundImageFix" result="effect1_dropShadow_703_566"/>
<feBlend mode="normal" in="SourceGraphic" in2="effect1_dropShadow_703_566" result="shape"/>
</filter>
<linearGradient id="paint0_linear_703_566" x1="25.0773" y1="4" x2="52.3926" y2="104.573" gradientUnits="userSpaceOnUse">
<stop stop-color="#0FEFFD"/>
<stop offset="0.515718" stop-color="#FF00F5"/>
<stop offset="0.776042" stop-color="#0FEFFD" stop-opacity="0.22"/>
</linearGradient>
</defs>
</svg>
