<svg width="57" height="24" viewBox="0 0 57 24" fill="none" xmlns="http://www.w3.org/2000/svg">
<path d="M0 0H49C53.4183 0 57 3.58172 57 8V24H8C3.58172 24 0 20.4183 0 16V0Z" fill="#1D1D1D" fill-opacity="0.5"/>
<path d="M16.8047 17H15.4854V12.3994H10.4678V17H9.15527V7.04688H10.4678V11.3262H15.4854V7.04688H16.8047V17ZM18.6025 13.2334C18.6025 12.5088 18.7438 11.8571 19.0264 11.2783C19.3135 10.6995 19.71 10.2529 20.2158 9.93848C20.7262 9.62402 21.3073 9.4668 21.959 9.4668C22.9661 9.4668 23.7796 9.81543 24.3994 10.5127C25.0238 11.21 25.3359 12.1374 25.3359 13.2949V13.3838C25.3359 14.1038 25.1969 14.751 24.9189 15.3252C24.6455 15.8949 24.2513 16.3392 23.7363 16.6582C23.2259 16.9772 22.638 17.1367 21.9727 17.1367C20.9701 17.1367 20.1566 16.7881 19.5322 16.0908C18.9124 15.3936 18.6025 14.4707 18.6025 13.3223V13.2334ZM19.874 13.3838C19.874 14.2041 20.0632 14.8626 20.4414 15.3594C20.8242 15.8561 21.3346 16.1045 21.9727 16.1045C22.6152 16.1045 23.1257 15.8538 23.5039 15.3525C23.8822 14.8467 24.0713 14.1403 24.0713 13.2334C24.0713 12.4222 23.8776 11.766 23.4902 11.2646C23.1074 10.7588 22.597 10.5059 21.959 10.5059C21.3346 10.5059 20.8311 10.7542 20.4482 11.251C20.0654 11.7477 19.874 12.4587 19.874 13.3838ZM30.4971 10.7383C30.3057 10.7064 30.0983 10.6904 29.875 10.6904C29.0456 10.6904 28.4827 11.0436 28.1865 11.75V17H26.9219V9.60352H28.1523L28.1729 10.458C28.5876 9.7972 29.1755 9.4668 29.9365 9.4668C30.1826 9.4668 30.3695 9.4987 30.4971 9.5625V10.7383ZM35.2412 10.7383C35.0498 10.7064 34.8424 10.6904 34.6191 10.6904C33.7897 10.6904 33.2269 11.0436 32.9307 11.75V17H31.666V9.60352H32.8965L32.917 10.458C33.3317 9.7972 33.9196 9.4668 34.6807 9.4668C34.9268 9.4668 35.1136 9.4987 35.2412 9.5625V10.7383ZM35.9385 13.2334C35.9385 12.5088 36.0798 11.8571 36.3623 11.2783C36.6494 10.6995 37.0459 10.2529 37.5518 9.93848C38.0622 9.62402 38.6432 9.4668 39.2949 9.4668C40.3021 9.4668 41.1156 9.81543 41.7354 10.5127C42.3597 11.21 42.6719 12.1374 42.6719 13.2949V13.3838C42.6719 14.1038 42.5329 14.751 42.2549 15.3252C41.9814 15.8949 41.5872 16.3392 41.0723 16.6582C40.5618 16.9772 39.974 17.1367 39.3086 17.1367C38.306 17.1367 37.4925 16.7881 36.8682 16.0908C36.2484 15.3936 35.9385 14.4707 35.9385 13.3223V13.2334ZM37.21 13.3838C37.21 14.2041 37.3991 14.8626 37.7773 15.3594C38.1602 15.8561 38.6706 16.1045 39.3086 16.1045C39.9512 16.1045 40.4616 15.8538 40.8398 15.3525C41.2181 14.8467 41.4072 14.1403 41.4072 13.2334C41.4072 12.4222 41.2135 11.766 40.8262 11.2646C40.4434 10.7588 39.9329 10.5059 39.2949 10.5059C38.6706 10.5059 38.167 10.7542 37.7842 11.251C37.4014 11.7477 37.21 12.4587 37.21 13.3838ZM47.833 10.7383C47.6416 10.7064 47.4342 10.6904 47.2109 10.6904C46.3815 10.6904 45.8187 11.0436 45.5225 11.75V17H44.2578V9.60352H45.4883L45.5088 10.458C45.9235 9.7972 46.5114 9.4668 47.2725 9.4668C47.5186 9.4668 47.7054 9.4987 47.833 9.5625V10.7383Z" fill="#0FEFFD"/>
</svg>
