<svg width="65" height="24" viewBox="0 0 65 24" fill="none" xmlns="http://www.w3.org/2000/svg">
<path d="M0 0H57C61.4183 0 65 3.58172 65 8V24H8C3.58172 24 0 20.4183 0 16V0Z" fill="#1D1D1D" fill-opacity="0.5"/>
<path d="M14.6445 12.6045H10.4678V17H9.15527V7.04688H15.3213V8.12695H10.4678V11.5312H14.6445V12.6045ZM21.0293 17C20.9564 16.8542 20.8971 16.5944 20.8516 16.2207C20.2637 16.8314 19.5618 17.1367 18.7461 17.1367C18.0169 17.1367 17.4176 16.9316 16.9482 16.5215C16.4834 16.1068 16.251 15.5827 16.251 14.9492C16.251 14.179 16.5426 13.582 17.126 13.1582C17.7139 12.7298 18.5387 12.5156 19.6006 12.5156H20.8311V11.9346C20.8311 11.4925 20.6989 11.1416 20.4346 10.8818C20.1702 10.6175 19.7806 10.4854 19.2656 10.4854C18.8145 10.4854 18.4362 10.5993 18.1309 10.8271C17.8255 11.055 17.6729 11.3307 17.6729 11.6543H16.4014C16.4014 11.2852 16.5312 10.9297 16.791 10.5879C17.0553 10.2415 17.4108 9.9681 17.8574 9.76758C18.3086 9.56706 18.8031 9.4668 19.3408 9.4668C20.193 9.4668 20.8607 9.68099 21.3438 10.1094C21.8268 10.5332 22.0775 11.1188 22.0957 11.8662V15.2705C22.0957 15.9495 22.1823 16.4896 22.3555 16.8906V17H21.0293ZM18.9307 16.0361C19.3271 16.0361 19.7031 15.9336 20.0586 15.7285C20.4141 15.5234 20.6715 15.2568 20.8311 14.9287V13.4111H19.8398C18.2904 13.4111 17.5156 13.8646 17.5156 14.7715C17.5156 15.168 17.6478 15.4779 17.9121 15.7012C18.1764 15.9245 18.516 16.0361 18.9307 16.0361ZM25.2744 9.60352L25.3154 10.5332C25.8805 9.82227 26.6188 9.4668 27.5303 9.4668C29.0934 9.4668 29.8818 10.3486 29.8955 12.1123V17H28.6309V12.1055C28.6263 11.5723 28.5033 11.1781 28.2617 10.9229C28.0247 10.6676 27.6533 10.54 27.1475 10.54C26.7373 10.54 26.3773 10.6494 26.0674 10.8682C25.7575 11.0869 25.516 11.374 25.3428 11.7295V17H24.0781V9.60352H25.2744ZM33.5186 7.8125V9.60352H34.8994V10.5811H33.5186V15.168C33.5186 15.4642 33.5801 15.6875 33.7031 15.8379C33.8262 15.9837 34.0358 16.0566 34.332 16.0566C34.4779 16.0566 34.6784 16.0293 34.9336 15.9746V17C34.6009 17.0911 34.2773 17.1367 33.9629 17.1367C33.3978 17.1367 32.9717 16.9658 32.6846 16.624C32.3975 16.2822 32.2539 15.7969 32.2539 15.168V10.5811H30.9072V9.60352H32.2539V7.8125H33.5186ZM40.9492 17C40.8763 16.8542 40.8171 16.5944 40.7715 16.2207C40.1836 16.8314 39.4818 17.1367 38.666 17.1367C37.9368 17.1367 37.3376 16.9316 36.8682 16.5215C36.4033 16.1068 36.1709 15.5827 36.1709 14.9492C36.1709 14.179 36.4626 13.582 37.0459 13.1582C37.6338 12.7298 38.4587 12.5156 39.5205 12.5156H40.751V11.9346C40.751 11.4925 40.6188 11.1416 40.3545 10.8818C40.0902 10.6175 39.7005 10.4854 39.1855 10.4854C38.7344 10.4854 38.3561 10.5993 38.0508 10.8271C37.7454 11.055 37.5928 11.3307 37.5928 11.6543H36.3213C36.3213 11.2852 36.4512 10.9297 36.7109 10.5879C36.9753 10.2415 37.3307 9.9681 37.7773 9.76758C38.2285 9.56706 38.723 9.4668 39.2607 9.4668C40.113 9.4668 40.7806 9.68099 41.2637 10.1094C41.7467 10.5332 41.9974 11.1188 42.0156 11.8662V15.2705C42.0156 15.9495 42.1022 16.4896 42.2754 16.8906V17H40.9492ZM38.8506 16.0361C39.2471 16.0361 39.623 15.9336 39.9785 15.7285C40.334 15.5234 40.5915 15.2568 40.751 14.9287V13.4111H39.7598C38.2103 13.4111 37.4355 13.8646 37.4355 14.7715C37.4355 15.168 37.5677 15.4779 37.832 15.7012C38.0964 15.9245 38.4359 16.0361 38.8506 16.0361ZM48.3047 15.0381C48.3047 14.6963 48.1748 14.432 47.915 14.2451C47.6598 14.0537 47.2109 13.8896 46.5684 13.7529C45.9303 13.6162 45.4222 13.4521 45.0439 13.2607C44.6702 13.0693 44.3923 12.8415 44.21 12.5771C44.0322 12.3128 43.9434 11.9984 43.9434 11.6338C43.9434 11.0277 44.1986 10.515 44.709 10.0957C45.224 9.67643 45.8802 9.4668 46.6777 9.4668C47.5163 9.4668 48.1953 9.68327 48.7148 10.1162C49.2389 10.5492 49.501 11.1029 49.501 11.7773H48.2295C48.2295 11.431 48.0814 11.1325 47.7852 10.8818C47.4935 10.6312 47.1243 10.5059 46.6777 10.5059C46.2174 10.5059 45.8574 10.6061 45.5977 10.8066C45.3379 11.0072 45.208 11.2692 45.208 11.5928C45.208 11.8981 45.3288 12.1283 45.5703 12.2832C45.8118 12.4382 46.2471 12.5863 46.876 12.7275C47.5094 12.8688 48.0221 13.0374 48.4141 13.2334C48.806 13.4294 49.0954 13.6663 49.2822 13.9443C49.4736 14.2178 49.5693 14.5527 49.5693 14.9492C49.5693 15.61 49.305 16.141 48.7764 16.542C48.2477 16.9385 47.5618 17.1367 46.7188 17.1367C46.1263 17.1367 45.6022 17.0319 45.1465 16.8223C44.6908 16.6126 44.333 16.321 44.0732 15.9473C43.818 15.569 43.6904 15.1611 43.6904 14.7236H44.9551C44.9779 15.1475 45.1465 15.4847 45.4609 15.7354C45.7799 15.9814 46.1992 16.1045 46.7188 16.1045C47.1973 16.1045 47.5801 16.0088 47.8672 15.8174C48.1589 15.6214 48.3047 15.3617 48.3047 15.0381ZM53.6367 15.1475L55.3594 9.60352H56.7129L53.7393 18.1416C53.279 19.3721 52.5475 19.9873 51.5449 19.9873L51.3057 19.9668L50.834 19.8779V18.8525L51.1758 18.8799C51.6042 18.8799 51.9368 18.7933 52.1738 18.6201C52.4154 18.4469 52.6136 18.1302 52.7686 17.6699L53.0488 16.918L50.4102 9.60352H51.791L53.6367 15.1475Z" fill="#0FEFFD"/>
</svg>
