<svg width="136" height="24" viewBox="0 0 136 24" fill="none" xmlns="http://www.w3.org/2000/svg">
<path d="M0 0H128C132.418 0 136 3.58172 136 8V24H8C3.58172 24 0 20.4183 0 16V0Z" fill="#1D1D1D" fill-opacity="0.5"/>
<path d="M14.6514 14.4023H10.4814L9.54492 17H8.19141L11.9922 7.04688H13.1406L16.9482 17H15.6016L14.6514 14.4023ZM10.8779 13.3223H14.2617L12.5664 8.66699L10.8779 13.3223ZM21.0566 16.1045C21.5078 16.1045 21.902 15.9678 22.2393 15.6943C22.5765 15.4209 22.7633 15.0791 22.7998 14.6689H23.9961C23.9733 15.0928 23.8275 15.4961 23.5586 15.8789C23.2897 16.2617 22.9297 16.5671 22.4785 16.7949C22.0319 17.0228 21.5579 17.1367 21.0566 17.1367C20.0495 17.1367 19.2474 16.8018 18.6504 16.1318C18.0579 15.4574 17.7617 14.5368 17.7617 13.3701V13.1582C17.7617 12.4382 17.8939 11.7979 18.1582 11.2373C18.4225 10.6768 18.8008 10.2415 19.293 9.93164C19.7897 9.62174 20.3753 9.4668 21.0498 9.4668C21.8792 9.4668 22.5674 9.71517 23.1143 10.2119C23.6657 10.7087 23.9596 11.3535 23.9961 12.1465H22.7998C22.7633 11.668 22.5811 11.276 22.2529 10.9707C21.9294 10.6608 21.5283 10.5059 21.0498 10.5059C20.4072 10.5059 19.9082 10.7383 19.5527 11.2031C19.2018 11.6634 19.0264 12.3311 19.0264 13.2061V13.4453C19.0264 14.2975 19.2018 14.9538 19.5527 15.4141C19.9036 15.8743 20.4049 16.1045 21.0566 16.1045ZM27.1338 7.8125V9.60352H28.5146V10.5811H27.1338V15.168C27.1338 15.4642 27.1953 15.6875 27.3184 15.8379C27.4414 15.9837 27.651 16.0566 27.9473 16.0566C28.0931 16.0566 28.2936 16.0293 28.5488 15.9746V17C28.2161 17.0911 27.8926 17.1367 27.5781 17.1367C27.013 17.1367 26.5869 16.9658 26.2998 16.624C26.0127 16.2822 25.8691 15.7969 25.8691 15.168V10.5811H24.5225V9.60352H25.8691V7.8125H27.1338ZM31.3721 17H30.1074V9.60352H31.3721V17ZM30.0049 7.6416C30.0049 7.43652 30.0664 7.26335 30.1895 7.12207C30.3171 6.98079 30.5039 6.91016 30.75 6.91016C30.9961 6.91016 31.1829 6.98079 31.3105 7.12207C31.4382 7.26335 31.502 7.43652 31.502 7.6416C31.502 7.84668 31.4382 8.01758 31.3105 8.1543C31.1829 8.29102 30.9961 8.35938 30.75 8.35938C30.5039 8.35938 30.3171 8.29102 30.1895 8.1543C30.0664 8.01758 30.0049 7.84668 30.0049 7.6416ZM33.0674 13.2334C33.0674 12.5088 33.2087 11.8571 33.4912 11.2783C33.7783 10.6995 34.1748 10.2529 34.6807 9.93848C35.1911 9.62402 35.7721 9.4668 36.4238 9.4668C37.431 9.4668 38.2445 9.81543 38.8643 10.5127C39.4886 11.21 39.8008 12.1374 39.8008 13.2949V13.3838C39.8008 14.1038 39.6618 14.751 39.3838 15.3252C39.1104 15.8949 38.7161 16.3392 38.2012 16.6582C37.6908 16.9772 37.1029 17.1367 36.4375 17.1367C35.4349 17.1367 34.6214 16.7881 33.9971 16.0908C33.3773 15.3936 33.0674 14.4707 33.0674 13.3223V13.2334ZM34.3389 13.3838C34.3389 14.2041 34.528 14.8626 34.9062 15.3594C35.2891 15.8561 35.7995 16.1045 36.4375 16.1045C37.0801 16.1045 37.5905 15.8538 37.9688 15.3525C38.347 14.8467 38.5361 14.1403 38.5361 13.2334C38.5361 12.4222 38.3424 11.766 37.9551 11.2646C37.5723 10.7588 37.0618 10.5059 36.4238 10.5059C35.7995 10.5059 35.2959 10.7542 34.9131 11.251C34.5303 11.7477 34.3389 12.4587 34.3389 13.3838ZM42.583 9.60352L42.624 10.5332C43.1891 9.82227 43.9274 9.4668 44.8389 9.4668C46.402 9.4668 47.1904 10.3486 47.2041 12.1123V17H45.9395V12.1055C45.9349 11.5723 45.8118 11.1781 45.5703 10.9229C45.3333 10.6676 44.9619 10.54 44.4561 10.54C44.0459 10.54 43.6859 10.6494 43.376 10.8682C43.0661 11.0869 42.8245 11.374 42.6514 11.7295V17H41.3867V9.60352H42.583ZM52.3174 14.3271C52.3174 13.8486 52.4495 13.4089 52.7139 13.0078C52.9827 12.6068 53.4932 12.1396 54.2451 11.6064C53.8031 11.0687 53.5068 10.6357 53.3564 10.3076C53.2061 9.97949 53.1309 9.65365 53.1309 9.33008C53.1309 8.57357 53.3542 7.98112 53.8008 7.55273C54.2474 7.12435 54.8535 6.91016 55.6191 6.91016C56.3027 6.91016 56.8678 7.11068 57.3145 7.51172C57.7611 7.9082 57.9844 8.40951 57.9844 9.01562C57.9844 9.41667 57.8818 9.78809 57.6768 10.1299C57.4762 10.4671 57.123 10.8226 56.6172 11.1963L55.8857 11.7363L58.1006 14.3818C58.4105 13.7894 58.5654 13.1309 58.5654 12.4062H59.707C59.707 13.5684 59.4268 14.5322 58.8662 15.2979L60.2881 17H58.7705L58.1074 16.2139C57.7702 16.5146 57.3737 16.7448 56.918 16.9043C56.4668 17.0592 56.0065 17.1367 55.5371 17.1367C54.5664 17.1367 53.7871 16.8792 53.1992 16.3643C52.6113 15.8493 52.3174 15.1702 52.3174 14.3271ZM55.5371 16.1045C56.207 16.1045 56.82 15.8493 57.376 15.3389L54.9492 12.4336L54.7236 12.5977C53.9626 13.1582 53.582 13.7347 53.582 14.3271C53.582 14.8649 53.7552 15.2956 54.1016 15.6191C54.4525 15.9427 54.931 16.1045 55.5371 16.1045ZM54.3955 9.28906C54.3955 9.72656 54.6644 10.2734 55.2021 10.9297L56.0088 10.3623C56.3187 10.1436 56.5306 9.9362 56.6445 9.74023C56.7585 9.53971 56.8154 9.29818 56.8154 9.01562C56.8154 8.71029 56.7015 8.45736 56.4736 8.25684C56.2458 8.05176 55.9587 7.94922 55.6123 7.94922C55.2386 7.94922 54.9424 8.07682 54.7236 8.33203C54.5049 8.58268 54.3955 8.90169 54.3955 9.28906ZM70.46 14.4023H66.29L65.3535 17H64L67.8008 7.04688H68.9492L72.7568 17H71.4102L70.46 14.4023ZM66.6865 13.3223H70.0703L68.375 8.66699L66.6865 13.3223ZM73.5908 13.2402C73.5908 12.1055 73.8597 11.194 74.3975 10.5059C74.9352 9.81315 75.6393 9.4668 76.5098 9.4668C77.3757 9.4668 78.0615 9.76302 78.5674 10.3555V6.5H79.832V17H78.6699L78.6084 16.207C78.1025 16.8268 77.3984 17.1367 76.4961 17.1367C75.6393 17.1367 74.9398 16.7858 74.3975 16.084C73.8597 15.3822 73.5908 14.4661 73.5908 13.3359V13.2402ZM74.8555 13.3838C74.8555 14.2223 75.0286 14.8786 75.375 15.3525C75.7214 15.8265 76.1999 16.0635 76.8105 16.0635C77.6126 16.0635 78.1982 15.7035 78.5674 14.9834V11.5859C78.1891 10.8887 77.6081 10.54 76.8242 10.54C76.2044 10.54 75.7214 10.7793 75.375 11.2578C75.0286 11.7363 74.8555 12.445 74.8555 13.3838ZM84.2412 15.2842L86.0732 9.60352H87.3652L84.7129 17H83.749L81.0693 9.60352H82.3613L84.2412 15.2842ZM91.5557 17.1367C90.5531 17.1367 89.7373 16.8086 89.1084 16.1523C88.4795 15.4915 88.165 14.6097 88.165 13.5068V13.2744C88.165 12.5407 88.304 11.8867 88.582 11.3125C88.8646 10.7337 89.2565 10.2826 89.7578 9.95898C90.2637 9.63086 90.8105 9.4668 91.3984 9.4668C92.36 9.4668 93.1074 9.78353 93.6406 10.417C94.1738 11.0505 94.4404 11.9574 94.4404 13.1377V13.6641H89.4297C89.4479 14.3932 89.6598 14.9834 90.0654 15.4346C90.4756 15.8812 90.9951 16.1045 91.624 16.1045C92.0706 16.1045 92.4489 16.0133 92.7588 15.8311C93.0687 15.6488 93.3398 15.4072 93.5723 15.1064L94.3447 15.708C93.7249 16.6605 92.7952 17.1367 91.5557 17.1367ZM91.3984 10.5059C90.888 10.5059 90.4596 10.6927 90.1133 11.0664C89.7669 11.4355 89.5527 11.9551 89.4707 12.625H93.1758V12.5293C93.1393 11.8867 92.9661 11.39 92.6562 11.0391C92.3464 10.6836 91.9271 10.5059 91.3984 10.5059ZM97.1064 9.60352L97.1475 10.5332C97.7126 9.82227 98.4508 9.4668 99.3623 9.4668C100.925 9.4668 101.714 10.3486 101.728 12.1123V17H100.463V12.1055C100.458 11.5723 100.335 11.1781 100.094 10.9229C99.8568 10.6676 99.4854 10.54 98.9795 10.54C98.5693 10.54 98.2093 10.6494 97.8994 10.8682C97.5895 11.0869 97.348 11.374 97.1748 11.7295V17H95.9102V9.60352H97.1064ZM105.351 7.8125V9.60352H106.731V10.5811H105.351V15.168C105.351 15.4642 105.412 15.6875 105.535 15.8379C105.658 15.9837 105.868 16.0566 106.164 16.0566C106.31 16.0566 106.51 16.0293 106.766 15.9746V17C106.433 17.0911 106.109 17.1367 105.795 17.1367C105.23 17.1367 104.804 16.9658 104.517 16.624C104.229 16.2822 104.086 15.7969 104.086 15.168V10.5811H102.739V9.60352H104.086V7.8125H105.351ZM112.781 16.2686C112.289 16.8473 111.567 17.1367 110.614 17.1367C109.826 17.1367 109.224 16.9089 108.81 16.4531C108.399 15.9928 108.192 15.3138 108.188 14.416V9.60352H109.452V14.3818C109.452 15.5029 109.908 16.0635 110.819 16.0635C111.785 16.0635 112.428 15.7035 112.747 14.9834V9.60352H114.012V17H112.809L112.781 16.2686ZM119.515 10.7383C119.323 10.7064 119.116 10.6904 118.893 10.6904C118.063 10.6904 117.5 11.0436 117.204 11.75V17H115.939V9.60352H117.17L117.19 10.458C117.605 9.7972 118.193 9.4668 118.954 9.4668C119.2 9.4668 119.387 9.4987 119.515 9.5625V10.7383ZM123.616 17.1367C122.614 17.1367 121.798 16.8086 121.169 16.1523C120.54 15.4915 120.226 14.6097 120.226 13.5068V13.2744C120.226 12.5407 120.365 11.8867 120.643 11.3125C120.925 10.7337 121.317 10.2826 121.818 9.95898C122.324 9.63086 122.871 9.4668 123.459 9.4668C124.421 9.4668 125.168 9.78353 125.701 10.417C126.234 11.0505 126.501 11.9574 126.501 13.1377V13.6641H121.49C121.508 14.3932 121.72 14.9834 122.126 15.4346C122.536 15.8812 123.056 16.1045 123.685 16.1045C124.131 16.1045 124.509 16.0133 124.819 15.8311C125.129 15.6488 125.4 15.4072 125.633 15.1064L126.405 15.708C125.785 16.6605 124.856 17.1367 123.616 17.1367ZM123.459 10.5059C122.949 10.5059 122.52 10.6927 122.174 11.0664C121.827 11.4355 121.613 11.9551 121.531 12.625H125.236V12.5293C125.2 11.8867 125.027 11.39 124.717 11.0391C124.407 10.6836 123.988 10.5059 123.459 10.5059Z" fill="#0FEFFD"/>
</svg>
