<svg width="58" height="24" viewBox="0 0 58 24" fill="none" xmlns="http://www.w3.org/2000/svg">
<path d="M0 0H50C54.4183 0 58 3.58172 58 8V24H8C3.58172 24 0 20.4183 0 16V0Z" fill="#1D1D1D" fill-opacity="0.5"/>
<path d="M9.15527 17V7.04688H11.9648C12.8307 7.04688 13.5964 7.23828 14.2617 7.62109C14.9271 8.00391 15.4398 8.5485 15.7998 9.25488C16.1644 9.96126 16.349 10.7725 16.3535 11.6885V12.3242C16.3535 13.263 16.1712 14.0856 15.8066 14.792C15.4466 15.4984 14.9294 16.0407 14.2549 16.4189C13.585 16.7972 12.8034 16.9909 11.9102 17H9.15527ZM10.4678 8.12695V15.9268H11.8486C12.8604 15.9268 13.6465 15.6123 14.207 14.9834C14.7721 14.3545 15.0547 13.459 15.0547 12.2969V11.7158C15.0547 10.5856 14.7881 9.70833 14.2549 9.08398C13.7262 8.45508 12.9743 8.13607 11.999 8.12695H10.4678ZM21.7197 10.7383C21.5283 10.7064 21.321 10.6904 21.0977 10.6904C20.2682 10.6904 19.7054 11.0436 19.4092 11.75V17H18.1445V9.60352H19.375L19.3955 10.458C19.8102 9.7972 20.3981 9.4668 21.1592 9.4668C21.4053 9.4668 21.5921 9.4987 21.7197 9.5625V10.7383ZM27.1816 17C27.1087 16.8542 27.0495 16.5944 27.0039 16.2207C26.416 16.8314 25.7142 17.1367 24.8984 17.1367C24.1693 17.1367 23.57 16.9316 23.1006 16.5215C22.6357 16.1068 22.4033 15.5827 22.4033 14.9492C22.4033 14.179 22.695 13.582 23.2783 13.1582C23.8662 12.7298 24.6911 12.5156 25.7529 12.5156H26.9834V11.9346C26.9834 11.4925 26.8512 11.1416 26.5869 10.8818C26.3226 10.6175 25.9329 10.4854 25.418 10.4854C24.9668 10.4854 24.5885 10.5993 24.2832 10.8271C23.9779 11.055 23.8252 11.3307 23.8252 11.6543H22.5537C22.5537 11.2852 22.6836 10.9297 22.9434 10.5879C23.2077 10.2415 23.5632 9.9681 24.0098 9.76758C24.4609 9.56706 24.9554 9.4668 25.4932 9.4668C26.3454 9.4668 27.013 9.68099 27.4961 10.1094C27.9792 10.5332 28.2298 11.1188 28.248 11.8662V15.2705C28.248 15.9495 28.3346 16.4896 28.5078 16.8906V17H27.1816ZM25.083 16.0361C25.4795 16.0361 25.8555 15.9336 26.2109 15.7285C26.5664 15.5234 26.8239 15.2568 26.9834 14.9287V13.4111H25.9922C24.4427 13.4111 23.668 13.8646 23.668 14.7715C23.668 15.168 23.8001 15.4779 24.0645 15.7012C24.3288 15.9245 24.6683 16.0361 25.083 16.0361ZM31.4199 9.60352L31.4541 10.4238C31.9964 9.78581 32.7279 9.4668 33.6484 9.4668C34.6829 9.4668 35.387 9.86328 35.7607 10.6562C36.0068 10.3008 36.3258 10.0137 36.7178 9.79492C37.1143 9.57617 37.5814 9.4668 38.1191 9.4668C39.7415 9.4668 40.5664 10.3258 40.5938 12.0439V17H39.3291V12.1191C39.3291 11.5905 39.2083 11.1963 38.9668 10.9365C38.7253 10.6722 38.3197 10.54 37.75 10.54C37.2806 10.54 36.891 10.6813 36.5811 10.9639C36.2712 11.2419 36.0911 11.6178 36.041 12.0918V17H34.7695V12.1533C34.7695 11.0778 34.2432 10.54 33.1904 10.54C32.361 10.54 31.7936 10.8932 31.4883 11.5996V17H30.2236V9.60352H31.4199ZM47.0742 17C47.0013 16.8542 46.9421 16.5944 46.8965 16.2207C46.3086 16.8314 45.6068 17.1367 44.791 17.1367C44.0618 17.1367 43.4626 16.9316 42.9932 16.5215C42.5283 16.1068 42.2959 15.5827 42.2959 14.9492C42.2959 14.179 42.5876 13.582 43.1709 13.1582C43.7588 12.7298 44.5837 12.5156 45.6455 12.5156H46.876V11.9346C46.876 11.4925 46.7438 11.1416 46.4795 10.8818C46.2152 10.6175 45.8255 10.4854 45.3105 10.4854C44.8594 10.4854 44.4811 10.5993 44.1758 10.8271C43.8704 11.055 43.7178 11.3307 43.7178 11.6543H42.4463C42.4463 11.2852 42.5762 10.9297 42.8359 10.5879C43.1003 10.2415 43.4557 9.9681 43.9023 9.76758C44.3535 9.56706 44.848 9.4668 45.3857 9.4668C46.238 9.4668 46.9056 9.68099 47.3887 10.1094C47.8717 10.5332 48.1224 11.1188 48.1406 11.8662V15.2705C48.1406 15.9495 48.2272 16.4896 48.4004 16.8906V17H47.0742ZM44.9756 16.0361C45.3721 16.0361 45.748 15.9336 46.1035 15.7285C46.459 15.5234 46.7165 15.2568 46.876 14.9287V13.4111H45.8848C44.3353 13.4111 43.5605 13.8646 43.5605 14.7715C43.5605 15.168 43.6927 15.4779 43.957 15.7012C44.2214 15.9245 44.5609 16.0361 44.9756 16.0361Z" fill="#0FEFFD"/>
</svg>
