<svg width="68" height="24" viewBox="0 0 68 24" fill="none" xmlns="http://www.w3.org/2000/svg">
<path d="M0 0H60C64.4183 0 68 3.58172 68 8V24H8C3.58172 24 0 20.4183 0 16V0Z" fill="#1D1D1D" fill-opacity="0.5"/>
<path d="M16.4766 13.8418C16.3535 14.8945 15.9639 15.708 15.3076 16.2822C14.6559 16.8519 13.7878 17.1367 12.7031 17.1367C11.5273 17.1367 10.584 16.7152 9.87305 15.8721C9.16667 15.029 8.81348 13.901 8.81348 12.4883V11.5312C8.81348 10.6061 8.97754 9.79264 9.30566 9.09082C9.63835 8.389 10.1077 7.85124 10.7139 7.47754C11.32 7.09928 12.0218 6.91016 12.8193 6.91016C13.8766 6.91016 14.7243 7.20638 15.3623 7.79883C16.0003 8.38672 16.3717 9.20247 16.4766 10.2461H15.1572C15.0433 9.45312 14.7949 8.87891 14.4121 8.52344C14.0339 8.16797 13.5029 7.99023 12.8193 7.99023C11.9808 7.99023 11.3223 8.30013 10.8438 8.91992C10.3698 9.53971 10.1328 10.4215 10.1328 11.5654V12.5293C10.1328 13.6094 10.3584 14.4684 10.8096 15.1064C11.2607 15.7445 11.8919 16.0635 12.7031 16.0635C13.4323 16.0635 13.9906 15.8994 14.3779 15.5713C14.7699 15.2386 15.0296 14.6621 15.1572 13.8418H16.4766ZM17.7412 13.2334C17.7412 12.5088 17.8825 11.8571 18.165 11.2783C18.4521 10.6995 18.8486 10.2529 19.3545 9.93848C19.8649 9.62402 20.446 9.4668 21.0977 9.4668C22.1048 9.4668 22.9183 9.81543 23.5381 10.5127C24.1624 11.21 24.4746 12.1374 24.4746 13.2949V13.3838C24.4746 14.1038 24.3356 14.751 24.0576 15.3252C23.7842 15.8949 23.39 16.3392 22.875 16.6582C22.3646 16.9772 21.7767 17.1367 21.1113 17.1367C20.1087 17.1367 19.2952 16.7881 18.6709 16.0908C18.0511 15.3936 17.7412 14.4707 17.7412 13.3223V13.2334ZM19.0127 13.3838C19.0127 14.2041 19.2018 14.8626 19.5801 15.3594C19.9629 15.8561 20.4733 16.1045 21.1113 16.1045C21.7539 16.1045 22.2643 15.8538 22.6426 15.3525C23.0208 14.8467 23.21 14.1403 23.21 13.2334C23.21 12.4222 23.0163 11.766 22.6289 11.2646C22.2461 10.7588 21.7357 10.5059 21.0977 10.5059C20.4733 10.5059 19.9697 10.7542 19.5869 11.251C19.2041 11.7477 19.0127 12.4587 19.0127 13.3838ZM27.25 9.60352L27.2842 10.4238C27.8265 9.78581 28.5579 9.4668 29.4785 9.4668C30.513 9.4668 31.2171 9.86328 31.5908 10.6562C31.8369 10.3008 32.1559 10.0137 32.5479 9.79492C32.9443 9.57617 33.4115 9.4668 33.9492 9.4668C35.5716 9.4668 36.3965 10.3258 36.4238 12.0439V17H35.1592V12.1191C35.1592 11.5905 35.0384 11.1963 34.7969 10.9365C34.5553 10.6722 34.1497 10.54 33.5801 10.54C33.1107 10.54 32.721 10.6813 32.4111 10.9639C32.1012 11.2419 31.9212 11.6178 31.8711 12.0918V17H30.5996V12.1533C30.5996 11.0778 30.0732 10.54 29.0205 10.54C28.1911 10.54 27.6237 10.8932 27.3184 11.5996V17H26.0537V9.60352H27.25ZM41.4072 17.1367C40.4046 17.1367 39.5889 16.8086 38.96 16.1523C38.3311 15.4915 38.0166 14.6097 38.0166 13.5068V13.2744C38.0166 12.5407 38.1556 11.8867 38.4336 11.3125C38.7161 10.7337 39.1081 10.2826 39.6094 9.95898C40.1152 9.63086 40.6621 9.4668 41.25 9.4668C42.2116 9.4668 42.959 9.78353 43.4922 10.417C44.0254 11.0505 44.292 11.9574 44.292 13.1377V13.6641H39.2812C39.2995 14.3932 39.5114 14.9834 39.917 15.4346C40.3271 15.8812 40.8467 16.1045 41.4756 16.1045C41.9222 16.1045 42.3005 16.0133 42.6104 15.8311C42.9202 15.6488 43.1914 15.4072 43.4238 15.1064L44.1963 15.708C43.5765 16.6605 42.6468 17.1367 41.4072 17.1367ZM41.25 10.5059C40.7396 10.5059 40.3112 10.6927 39.9648 11.0664C39.6185 11.4355 39.4043 11.9551 39.3223 12.625H43.0273V12.5293C42.9909 11.8867 42.8177 11.39 42.5078 11.0391C42.1979 10.6836 41.7786 10.5059 41.25 10.5059ZM45.4541 13.2402C45.4541 12.1055 45.723 11.194 46.2607 10.5059C46.7985 9.81315 47.5026 9.4668 48.373 9.4668C49.2389 9.4668 49.9248 9.76302 50.4307 10.3555V6.5H51.6953V17H50.5332L50.4717 16.207C49.9658 16.8268 49.2617 17.1367 48.3594 17.1367C47.5026 17.1367 46.8031 16.7858 46.2607 16.084C45.723 15.3822 45.4541 14.4661 45.4541 13.3359V13.2402ZM46.7188 13.3838C46.7188 14.2223 46.8919 14.8786 47.2383 15.3525C47.5846 15.8265 48.0632 16.0635 48.6738 16.0635C49.4759 16.0635 50.0615 15.7035 50.4307 14.9834V11.5859C50.0524 10.8887 49.4714 10.54 48.6875 10.54C48.0677 10.54 47.5846 10.7793 47.2383 11.2578C46.8919 11.7363 46.7188 12.445 46.7188 13.3838ZM56.084 15.1475L57.8066 9.60352H59.1602L56.1865 18.1416C55.7262 19.3721 54.9948 19.9873 53.9922 19.9873L53.7529 19.9668L53.2812 19.8779V18.8525L53.623 18.8799C54.0514 18.8799 54.3841 18.7933 54.6211 18.6201C54.8626 18.4469 55.0609 18.1302 55.2158 17.6699L55.4961 16.918L52.8574 9.60352H54.2383L56.084 15.1475Z" fill="#0FEFFD"/>
</svg>
