<svg width="57" height="24" viewBox="0 0 57 24" fill="none" xmlns="http://www.w3.org/2000/svg">
<path d="M0 0H49C53.4183 0 57 3.58172 57 8V24H8C3.58172 24 0 20.4183 0 16V0Z" fill="#1D1D1D" fill-opacity="0.5"/>
<path d="M14.6514 14.4023H10.4814L9.54492 17H8.19141L11.9922 7.04688H13.1406L16.9482 17H15.6016L14.6514 14.4023ZM10.8779 13.3223H14.2617L12.5664 8.66699L10.8779 13.3223ZM21.0566 16.1045C21.5078 16.1045 21.902 15.9678 22.2393 15.6943C22.5765 15.4209 22.7633 15.0791 22.7998 14.6689H23.9961C23.9733 15.0928 23.8275 15.4961 23.5586 15.8789C23.2897 16.2617 22.9297 16.5671 22.4785 16.7949C22.0319 17.0228 21.5579 17.1367 21.0566 17.1367C20.0495 17.1367 19.2474 16.8018 18.6504 16.1318C18.0579 15.4574 17.7617 14.5368 17.7617 13.3701V13.1582C17.7617 12.4382 17.8939 11.7979 18.1582 11.2373C18.4225 10.6768 18.8008 10.2415 19.293 9.93164C19.7897 9.62174 20.3753 9.4668 21.0498 9.4668C21.8792 9.4668 22.5674 9.71517 23.1143 10.2119C23.6657 10.7087 23.9596 11.3535 23.9961 12.1465H22.7998C22.7633 11.668 22.5811 11.276 22.2529 10.9707C21.9294 10.6608 21.5283 10.5059 21.0498 10.5059C20.4072 10.5059 19.9082 10.7383 19.5527 11.2031C19.2018 11.6634 19.0264 12.3311 19.0264 13.2061V13.4453C19.0264 14.2975 19.2018 14.9538 19.5527 15.4141C19.9036 15.8743 20.4049 16.1045 21.0566 16.1045ZM27.1338 7.8125V9.60352H28.5146V10.5811H27.1338V15.168C27.1338 15.4642 27.1953 15.6875 27.3184 15.8379C27.4414 15.9837 27.651 16.0566 27.9473 16.0566C28.0931 16.0566 28.2936 16.0293 28.5488 15.9746V17C28.2161 17.0911 27.8926 17.1367 27.5781 17.1367C27.013 17.1367 26.5869 16.9658 26.2998 16.624C26.0127 16.2822 25.8691 15.7969 25.8691 15.168V10.5811H24.5225V9.60352H25.8691V7.8125H27.1338ZM31.3721 17H30.1074V9.60352H31.3721V17ZM30.0049 7.6416C30.0049 7.43652 30.0664 7.26335 30.1895 7.12207C30.3171 6.98079 30.5039 6.91016 30.75 6.91016C30.9961 6.91016 31.1829 6.98079 31.3105 7.12207C31.4382 7.26335 31.502 7.43652 31.502 7.6416C31.502 7.84668 31.4382 8.01758 31.3105 8.1543C31.1829 8.29102 30.9961 8.35938 30.75 8.35938C30.5039 8.35938 30.3171 8.29102 30.1895 8.1543C30.0664 8.01758 30.0049 7.84668 30.0049 7.6416ZM33.0674 13.2334C33.0674 12.5088 33.2087 11.8571 33.4912 11.2783C33.7783 10.6995 34.1748 10.2529 34.6807 9.93848C35.1911 9.62402 35.7721 9.4668 36.4238 9.4668C37.431 9.4668 38.2445 9.81543 38.8643 10.5127C39.4886 11.21 39.8008 12.1374 39.8008 13.2949V13.3838C39.8008 14.1038 39.6618 14.751 39.3838 15.3252C39.1104 15.8949 38.7161 16.3392 38.2012 16.6582C37.6908 16.9772 37.1029 17.1367 36.4375 17.1367C35.4349 17.1367 34.6214 16.7881 33.9971 16.0908C33.3773 15.3936 33.0674 14.4707 33.0674 13.3223V13.2334ZM34.3389 13.3838C34.3389 14.2041 34.528 14.8626 34.9062 15.3594C35.2891 15.8561 35.7995 16.1045 36.4375 16.1045C37.0801 16.1045 37.5905 15.8538 37.9688 15.3525C38.347 14.8467 38.5361 14.1403 38.5361 13.2334C38.5361 12.4222 38.3424 11.766 37.9551 11.2646C37.5723 10.7588 37.0618 10.5059 36.4238 10.5059C35.7995 10.5059 35.2959 10.7542 34.9131 11.251C34.5303 11.7477 34.3389 12.4587 34.3389 13.3838ZM42.583 9.60352L42.624 10.5332C43.1891 9.82227 43.9274 9.4668 44.8389 9.4668C46.402 9.4668 47.1904 10.3486 47.2041 12.1123V17H45.9395V12.1055C45.9349 11.5723 45.8118 11.1781 45.5703 10.9229C45.3333 10.6676 44.9619 10.54 44.4561 10.54C44.0459 10.54 43.6859 10.6494 43.376 10.8682C43.0661 11.0869 42.8245 11.374 42.6514 11.7295V17H41.3867V9.60352H42.583Z" fill="#0FEFFD"/>
</svg>
