<svg width="57" height="24" viewBox="0 0 57 24" fill="none" xmlns="http://www.w3.org/2000/svg">
<path d="M0 0H49C53.4183 0 57 3.58172 57 8V24H8C3.58172 24 0 20.4183 0 16V0Z" fill="#1D1D1D" fill-opacity="0.5"/>
<path d="M14.6445 12.6045H10.4678V17H9.15527V7.04688H15.3213V8.12695H10.4678V11.5312H14.6445V12.6045ZM21.0293 17C20.9564 16.8542 20.8971 16.5944 20.8516 16.2207C20.2637 16.8314 19.5618 17.1367 18.7461 17.1367C18.0169 17.1367 17.4176 16.9316 16.9482 16.5215C16.4834 16.1068 16.251 15.5827 16.251 14.9492C16.251 14.179 16.5426 13.582 17.126 13.1582C17.7139 12.7298 18.5387 12.5156 19.6006 12.5156H20.8311V11.9346C20.8311 11.4925 20.6989 11.1416 20.4346 10.8818C20.1702 10.6175 19.7806 10.4854 19.2656 10.4854C18.8145 10.4854 18.4362 10.5993 18.1309 10.8271C17.8255 11.055 17.6729 11.3307 17.6729 11.6543H16.4014C16.4014 11.2852 16.5312 10.9297 16.791 10.5879C17.0553 10.2415 17.4108 9.9681 17.8574 9.76758C18.3086 9.56706 18.8031 9.4668 19.3408 9.4668C20.193 9.4668 20.8607 9.68099 21.3438 10.1094C21.8268 10.5332 22.0775 11.1188 22.0957 11.8662V15.2705C22.0957 15.9495 22.1823 16.4896 22.3555 16.8906V17H21.0293ZM18.9307 16.0361C19.3271 16.0361 19.7031 15.9336 20.0586 15.7285C20.4141 15.5234 20.6715 15.2568 20.8311 14.9287V13.4111H19.8398C18.2904 13.4111 17.5156 13.8646 17.5156 14.7715C17.5156 15.168 17.6478 15.4779 17.9121 15.7012C18.1764 15.9245 18.516 16.0361 18.9307 16.0361ZM25.2676 9.60352L25.3018 10.4238C25.8441 9.78581 26.5755 9.4668 27.4961 9.4668C28.5306 9.4668 29.2347 9.86328 29.6084 10.6562C29.8545 10.3008 30.1735 10.0137 30.5654 9.79492C30.9619 9.57617 31.429 9.4668 31.9668 9.4668C33.5892 9.4668 34.4141 10.3258 34.4414 12.0439V17H33.1768V12.1191C33.1768 11.5905 33.056 11.1963 32.8145 10.9365C32.5729 10.6722 32.1673 10.54 31.5977 10.54C31.1283 10.54 30.7386 10.6813 30.4287 10.9639C30.1188 11.2419 29.9388 11.6178 29.8887 12.0918V17H28.6172V12.1533C28.6172 11.0778 28.0908 10.54 27.0381 10.54C26.2087 10.54 25.6413 10.8932 25.3359 11.5996V17H24.0713V9.60352H25.2676ZM37.7295 17H36.4648V9.60352H37.7295V17ZM36.3623 7.6416C36.3623 7.43652 36.4238 7.26335 36.5469 7.12207C36.6745 6.98079 36.8613 6.91016 37.1074 6.91016C37.3535 6.91016 37.5404 6.98079 37.668 7.12207C37.7956 7.26335 37.8594 7.43652 37.8594 7.6416C37.8594 7.84668 37.7956 8.01758 37.668 8.1543C37.5404 8.29102 37.3535 8.35938 37.1074 8.35938C36.8613 8.35938 36.6745 8.29102 36.5469 8.1543C36.4238 8.01758 36.3623 7.84668 36.3623 7.6416ZM41.1338 17H39.8691V6.5H41.1338V17ZM45.584 15.1475L47.3066 9.60352H48.6602L45.6865 18.1416C45.2262 19.3721 44.4948 19.9873 43.4922 19.9873L43.2529 19.9668L42.7812 19.8779V18.8525L43.123 18.8799C43.5514 18.8799 43.8841 18.7933 44.1211 18.6201C44.3626 18.4469 44.5609 18.1302 44.7158 17.6699L44.9961 16.918L42.3574 9.60352H43.7383L45.584 15.1475Z" fill="#0FEFFD"/>
</svg>
