<svg width="111" height="24" viewBox="0 0 111 24" fill="none" xmlns="http://www.w3.org/2000/svg">
<path d="M0 0H103C107.418 0 111 3.58172 111 8V24H8C3.58172 24 0 20.4183 0 16V0Z" fill="#1D1D1D" fill-opacity="0.5"/>
<path d="M12.0879 12.5635C10.9622 12.2399 10.1419 11.8434 9.62695 11.374C9.11654 10.9001 8.86133 10.3167 8.86133 9.62402C8.86133 8.84017 9.1735 8.19303 9.79785 7.68262C10.4268 7.16764 11.2425 6.91016 12.2451 6.91016C12.9287 6.91016 13.5371 7.04232 14.0703 7.30664C14.6081 7.57096 15.0228 7.93555 15.3145 8.40039C15.6107 8.86523 15.7588 9.37337 15.7588 9.9248H14.4395C14.4395 9.32324 14.248 8.85156 13.8652 8.50977C13.4824 8.16341 12.9424 7.99023 12.2451 7.99023C11.598 7.99023 11.0921 8.13379 10.7275 8.4209C10.3675 8.70345 10.1875 9.09766 10.1875 9.60352C10.1875 10.0091 10.3584 10.3532 10.7002 10.6357C11.0465 10.9137 11.6322 11.1689 12.457 11.4014C13.2865 11.6338 13.9336 11.8913 14.3984 12.1738C14.8678 12.4518 15.2142 12.7777 15.4375 13.1514C15.6654 13.5251 15.7793 13.9648 15.7793 14.4707C15.7793 15.2773 15.4648 15.9245 14.8359 16.4121C14.207 16.8952 13.3662 17.1367 12.3135 17.1367C11.6299 17.1367 10.9919 17.0068 10.3994 16.7471C9.80697 16.4827 9.34896 16.1227 9.02539 15.667C8.70638 15.2113 8.54688 14.694 8.54688 14.1152H9.86621C9.86621 14.7168 10.0872 15.193 10.5293 15.5439C10.9759 15.8903 11.5706 16.0635 12.3135 16.0635C13.0062 16.0635 13.5371 15.9222 13.9062 15.6396C14.2754 15.3571 14.46 14.972 14.46 14.4844C14.46 13.9967 14.2891 13.6208 13.9473 13.3564C13.6055 13.0876 12.9857 12.8232 12.0879 12.5635ZM20.2363 16.1045C20.6875 16.1045 21.0817 15.9678 21.4189 15.6943C21.7562 15.4209 21.943 15.0791 21.9795 14.6689H23.1758C23.153 15.0928 23.0072 15.4961 22.7383 15.8789C22.4694 16.2617 22.1094 16.5671 21.6582 16.7949C21.2116 17.0228 20.7376 17.1367 20.2363 17.1367C19.2292 17.1367 18.4271 16.8018 17.8301 16.1318C17.2376 15.4574 16.9414 14.5368 16.9414 13.3701V13.1582C16.9414 12.4382 17.0736 11.7979 17.3379 11.2373C17.6022 10.6768 17.9805 10.2415 18.4727 9.93164C18.9694 9.62174 19.555 9.4668 20.2295 9.4668C21.0589 9.4668 21.7471 9.71517 22.2939 10.2119C22.8454 10.7087 23.1393 11.3535 23.1758 12.1465H21.9795C21.943 11.668 21.7607 11.276 21.4326 10.9707C21.109 10.6608 20.708 10.5059 20.2295 10.5059C19.5869 10.5059 19.0879 10.7383 18.7324 11.2031C18.3815 11.6634 18.2061 12.3311 18.2061 13.2061V13.4453C18.2061 14.2975 18.3815 14.9538 18.7324 15.4141C19.0833 15.8743 19.5846 16.1045 20.2363 16.1045ZM25.9717 17H24.707V9.60352H25.9717V17ZM24.6045 7.6416C24.6045 7.43652 24.666 7.26335 24.7891 7.12207C24.9167 6.98079 25.1035 6.91016 25.3496 6.91016C25.5957 6.91016 25.7826 6.98079 25.9102 7.12207C26.0378 7.26335 26.1016 7.43652 26.1016 7.6416C26.1016 7.84668 26.0378 8.01758 25.9102 8.1543C25.7826 8.29102 25.5957 8.35938 25.3496 8.35938C25.1035 8.35938 24.9167 8.29102 24.7891 8.1543C24.666 8.01758 24.6045 7.84668 24.6045 7.6416ZM31.0713 17.1367C30.0687 17.1367 29.2529 16.8086 28.624 16.1523C27.9951 15.4915 27.6807 14.6097 27.6807 13.5068V13.2744C27.6807 12.5407 27.8197 11.8867 28.0977 11.3125C28.3802 10.7337 28.7721 10.2826 29.2734 9.95898C29.7793 9.63086 30.3262 9.4668 30.9141 9.4668C31.8757 9.4668 32.623 9.78353 33.1562 10.417C33.6895 11.0505 33.9561 11.9574 33.9561 13.1377V13.6641H28.9453C28.9635 14.3932 29.1755 14.9834 29.5811 15.4346C29.9912 15.8812 30.5107 16.1045 31.1396 16.1045C31.5863 16.1045 31.9645 16.0133 32.2744 15.8311C32.5843 15.6488 32.8555 15.4072 33.0879 15.1064L33.8604 15.708C33.2406 16.6605 32.3109 17.1367 31.0713 17.1367ZM30.9141 10.5059C30.4036 10.5059 29.9753 10.6927 29.6289 11.0664C29.2826 11.4355 29.0684 11.9551 28.9863 12.625H32.6914V12.5293C32.6549 11.8867 32.4818 11.39 32.1719 11.0391C31.862 10.6836 31.4427 10.5059 30.9141 10.5059ZM36.6221 9.60352L36.6631 10.5332C37.2282 9.82227 37.9665 9.4668 38.8779 9.4668C40.4411 9.4668 41.2295 10.3486 41.2432 12.1123V17H39.9785V12.1055C39.974 11.5723 39.8509 11.1781 39.6094 10.9229C39.3724 10.6676 39.001 10.54 38.4951 10.54C38.085 10.54 37.7249 10.6494 37.415 10.8682C37.1051 11.0869 36.8636 11.374 36.6904 11.7295V17H35.4258V9.60352H36.6221ZM46.1172 16.1045C46.5684 16.1045 46.9626 15.9678 47.2998 15.6943C47.637 15.4209 47.8239 15.0791 47.8604 14.6689H49.0566C49.0339 15.0928 48.888 15.4961 48.6191 15.8789C48.3503 16.2617 47.9902 16.5671 47.5391 16.7949C47.0924 17.0228 46.6185 17.1367 46.1172 17.1367C45.11 17.1367 44.3079 16.8018 43.7109 16.1318C43.1185 15.4574 42.8223 14.5368 42.8223 13.3701V13.1582C42.8223 12.4382 42.9544 11.7979 43.2188 11.2373C43.4831 10.6768 43.8613 10.2415 44.3535 9.93164C44.8503 9.62174 45.4359 9.4668 46.1104 9.4668C46.9398 9.4668 47.6279 9.71517 48.1748 10.2119C48.7262 10.7087 49.0202 11.3535 49.0566 12.1465H47.8604C47.8239 11.668 47.6416 11.276 47.3135 10.9707C46.9899 10.6608 46.5889 10.5059 46.1104 10.5059C45.4678 10.5059 44.9688 10.7383 44.6133 11.2031C44.2624 11.6634 44.0869 12.3311 44.0869 13.2061V13.4453C44.0869 14.2975 44.2624 14.9538 44.6133 15.4141C44.9642 15.8743 45.4655 16.1045 46.1172 16.1045ZM53.5479 17.1367C52.5452 17.1367 51.7295 16.8086 51.1006 16.1523C50.4717 15.4915 50.1572 14.6097 50.1572 13.5068V13.2744C50.1572 12.5407 50.2962 11.8867 50.5742 11.3125C50.8568 10.7337 51.2487 10.2826 51.75 9.95898C52.2559 9.63086 52.8027 9.4668 53.3906 9.4668C54.3522 9.4668 55.0996 9.78353 55.6328 10.417C56.166 11.0505 56.4326 11.9574 56.4326 13.1377V13.6641H51.4219C51.4401 14.3932 51.652 14.9834 52.0576 15.4346C52.4678 15.8812 52.9873 16.1045 53.6162 16.1045C54.0628 16.1045 54.4411 16.0133 54.751 15.8311C55.0609 15.6488 55.332 15.4072 55.5645 15.1064L56.3369 15.708C55.7171 16.6605 54.7874 17.1367 53.5479 17.1367ZM53.3906 10.5059C52.8802 10.5059 52.4518 10.6927 52.1055 11.0664C51.7591 11.4355 51.5449 11.9551 51.4629 12.625H55.168V12.5293C55.1315 11.8867 54.9583 11.39 54.6484 11.0391C54.3385 10.6836 53.9193 10.5059 53.3906 10.5059ZM67.0625 12.6045H62.8857V17H61.5732V7.04688H67.7393V8.12695H62.8857V11.5312H67.0625V12.6045ZM70.4873 17H69.2227V9.60352H70.4873V17ZM69.1201 7.6416C69.1201 7.43652 69.1816 7.26335 69.3047 7.12207C69.4323 6.98079 69.6191 6.91016 69.8652 6.91016C70.1113 6.91016 70.2982 6.98079 70.4258 7.12207C70.5534 7.26335 70.6172 7.43652 70.6172 7.6416C70.6172 7.84668 70.5534 8.01758 70.4258 8.1543C70.2982 8.29102 70.1113 8.35938 69.8652 8.35938C69.6191 8.35938 69.4323 8.29102 69.3047 8.1543C69.1816 8.01758 69.1201 7.84668 69.1201 7.6416ZM75.4844 16.1045C75.9355 16.1045 76.3298 15.9678 76.667 15.6943C77.0042 15.4209 77.1911 15.0791 77.2275 14.6689H78.4238C78.401 15.0928 78.2552 15.4961 77.9863 15.8789C77.7174 16.2617 77.3574 16.5671 76.9062 16.7949C76.4596 17.0228 75.9857 17.1367 75.4844 17.1367C74.4772 17.1367 73.6751 16.8018 73.0781 16.1318C72.4857 15.4574 72.1895 14.5368 72.1895 13.3701V13.1582C72.1895 12.4382 72.3216 11.7979 72.5859 11.2373C72.8503 10.6768 73.2285 10.2415 73.7207 9.93164C74.2174 9.62174 74.8031 9.4668 75.4775 9.4668C76.307 9.4668 76.9951 9.71517 77.542 10.2119C78.0934 10.7087 78.3874 11.3535 78.4238 12.1465H77.2275C77.1911 11.668 77.0088 11.276 76.6807 10.9707C76.3571 10.6608 75.9561 10.5059 75.4775 10.5059C74.835 10.5059 74.3359 10.7383 73.9805 11.2031C73.6296 11.6634 73.4541 12.3311 73.4541 13.2061V13.4453C73.4541 14.2975 73.6296 14.9538 73.9805 15.4141C74.3314 15.8743 74.8327 16.1045 75.4844 16.1045ZM81.5615 7.8125V9.60352H82.9424V10.5811H81.5615V15.168C81.5615 15.4642 81.623 15.6875 81.7461 15.8379C81.8691 15.9837 82.0788 16.0566 82.375 16.0566C82.5208 16.0566 82.7214 16.0293 82.9766 15.9746V17C82.6439 17.0911 82.3203 17.1367 82.0059 17.1367C81.4408 17.1367 81.0146 16.9658 80.7275 16.624C80.4404 16.2822 80.2969 15.7969 80.2969 15.168V10.5811H78.9502V9.60352H80.2969V7.8125H81.5615ZM85.7998 17H84.5352V9.60352H85.7998V17ZM84.4326 7.6416C84.4326 7.43652 84.4941 7.26335 84.6172 7.12207C84.7448 6.98079 84.9316 6.91016 85.1777 6.91016C85.4238 6.91016 85.6107 6.98079 85.7383 7.12207C85.8659 7.26335 85.9297 7.43652 85.9297 7.6416C85.9297 7.84668 85.8659 8.01758 85.7383 8.1543C85.6107 8.29102 85.4238 8.35938 85.1777 8.35938C84.9316 8.35938 84.7448 8.29102 84.6172 8.1543C84.4941 8.01758 84.4326 7.84668 84.4326 7.6416ZM87.4951 13.2334C87.4951 12.5088 87.6364 11.8571 87.9189 11.2783C88.2061 10.6995 88.6025 10.2529 89.1084 9.93848C89.6188 9.62402 90.1999 9.4668 90.8516 9.4668C91.8587 9.4668 92.6722 9.81543 93.292 10.5127C93.9163 11.21 94.2285 12.1374 94.2285 13.2949V13.3838C94.2285 14.1038 94.0895 14.751 93.8115 15.3252C93.5381 15.8949 93.1439 16.3392 92.6289 16.6582C92.1185 16.9772 91.5306 17.1367 90.8652 17.1367C89.8626 17.1367 89.0492 16.7881 88.4248 16.0908C87.805 15.3936 87.4951 14.4707 87.4951 13.3223V13.2334ZM88.7666 13.3838C88.7666 14.2041 88.9557 14.8626 89.334 15.3594C89.7168 15.8561 90.2272 16.1045 90.8652 16.1045C91.5078 16.1045 92.0182 15.8538 92.3965 15.3525C92.7747 14.8467 92.9639 14.1403 92.9639 13.2334C92.9639 12.4222 92.7702 11.766 92.3828 11.2646C92 10.7588 91.4896 10.5059 90.8516 10.5059C90.2272 10.5059 89.7236 10.7542 89.3408 11.251C88.958 11.7477 88.7666 12.4587 88.7666 13.3838ZM97.0107 9.60352L97.0518 10.5332C97.6169 9.82227 98.3551 9.4668 99.2666 9.4668C100.83 9.4668 101.618 10.3486 101.632 12.1123V17H100.367V12.1055C100.363 11.5723 100.24 11.1781 99.998 10.9229C99.7611 10.6676 99.3896 10.54 98.8838 10.54C98.4736 10.54 98.1136 10.6494 97.8037 10.8682C97.4938 11.0869 97.2523 11.374 97.0791 11.7295V17H95.8145V9.60352H97.0107Z" fill="#0FEFFD"/>
</svg>
